<svg id="Ebene_1" data-name="Ebene 1" xmlns="http://www.w3.org/2000/svg" xmlns:xlink="http://www.w3.org/1999/xlink" viewBox="0 0 2560 3792.61"><defs><style>.cls-1{fill:none;}.cls-2{clip-path:url(#clip-path);}</style><clipPath id="clip-path" transform="translate(0 -0.06)"><polygon class="cls-1" points="1280.01 0.06 0 739.07 0 2217.09 1280.01 2956.11 2560 2217.09 2560 739.07 1280.01 0.06"/></clipPath></defs><g class="cls-2"><path d="M602.65,2565l158,91.2c122-224,315.16-529.76,469.3-553.68,225.5-35,545.6,149.69,789.23-77.75q-85.41-39.87-82.67-122.35s-174.49,62-407.66,10.62c-90.88-20-233-93.88-371.84-131.45-312.3-84.51-480.21,69.78-567.2,187.39,66.84-44.28,225.84-10,314,104.7C854.4,2118.17,729.59,2328.84,602.65,2565Z" transform="translate(0 -0.06)"/><path d="M1280,.06,0,739.05v1478l98.36,56.79c207.14-769.62,487-1586.06,596.07-1770.4,130.18,193.36,310.67,659.85,310.67,659.85L1558.27,624l-64.54,668.68c37.46,25.84,108.67,123.61,120.16,212,23.91,183.64,327.82,277.78,481.05,314.82,104.32,25.21,152.75,66.59-22.86,281.53-121.9,149.21-334.59,147.47-437.32,142.92C1287,2228.59,1167.27,2300.6,1049,2563.13L952.19,2766.8,1280,2956.06l1280-739v-1478Z" transform="translate(0 -0.06)"/><path d="M896.23,1186S776.12,824.58,695.56,683.73c-66.5,201.85-134.86,739-134.86,739C611.58,1333.24,744.74,1228.87,896.23,1186Z" transform="translate(0 -0.06)"/><path d="M1491.86,812.74,1263,1176.38c28.27,5.51,109.07,37.65,147.47,57.9Z" transform="translate(0 -0.06)"/><path d="M1011.31,1491.55c77.87,123.78,183.69,209.73,366,157-79.78-105.85-155.49-164-280.77-165.81C1078.63,1482.53,1030,1489.76,1011.31,1491.55Z" transform="translate(0 -0.06)"/></g><path d="M2198.33,3784.37h97.61l60.93-98.31c4.85-7.62,10.39-18.68,10.39-18.68h1.38s4.85,11.77,9.69,18.68l61.61,98.31h97.63l-115.63-178.61,58.85-87.93c6.94-10.38,12.46-11.77,27-11.77h24.91v-74.77H2471.8c-29.78,0-41.55,6.23-57.47,33.24l-34.61,58.14c-4.86,9-11.08,22.85-11.08,22.85h-1.38s-6.24-13.84-11.08-22.85l-34.62-58.14c-15.93-27-28.38-33.24-57.46-33.24h-61.61v74.77h25.61c14.53,0,20.08,1.39,27,11.77l58.14,87.93Zm-328.14-176.53c0-65.08,47.76-110.08,104.53-110.08,57.46,0,105.25,45,105.25,110.08,0,65.76-47.79,110.06-105.25,110.06-56.77,0-104.53-44.3-104.53-110.06m-88.62,0c0,108.69,85.85,184.83,193.15,184.83,108,0,193.85-76.14,193.85-184.83,0-108-85.84-184.85-193.85-184.85-107.3,0-193.15,76.85-193.15,184.85m-299.07,84.45V3565.6h85.84c43.63,0,69.25,29.77,69.25,70.62,0,41.54-24.93,71.3-69.25,71.3h-70.6c-9.7,0-15.24-5.54-15.24-15.23m0-198.68V3369.68h76.16c40.15,0,60.91,25.62,60.91,60.93s-21.44,63-59.53,63Zm-90.69,243.68c0,33.23,14.53,47.08,47.08,47.08h122.54c91.37,0,169.61-44.3,169.61-142.61,0-49.86-25.61-99.7-78.92-115.62v-1.39c29.77-15.22,59.53-50.53,59.53-105.23,0-81-63.68-126.69-152.3-126.69H1346.81v76.85h45Zm-515.06,47.08h97.62l60.93-98.31c4.84-7.62,10.38-18.68,10.38-18.68h1.39s4.84,11.77,9.67,18.68l61.63,98.31H1216l-115.61-178.61,58.84-87.93c6.93-10.38,12.47-11.77,27-11.77h24.93v-74.77h-60.92c-29.77,0-41.54,6.23-57.46,33.24l-34.63,58.14c-4.83,9-11.06,22.85-11.06,22.85h-1.39s-6.23-13.84-11.09-22.85l-34.6-58.14c-15.92-27-28.4-33.24-57.46-33.24H880.9v74.77h25.61c14.55,0,20.1,1.39,27,11.77l58.16,87.93ZM548.62,3607.84c0-65.08,47.76-110.08,104.54-110.08,57.46,0,105.22,45,105.22,110.08,0,65.76-47.76,110.06-105.22,110.06-56.78,0-104.54-44.3-104.54-110.06m-88.62,0c0,108.69,85.84,184.83,193.16,184.83,108,0,193.84-76.14,193.84-184.83,0-108-85.86-184.85-193.84-184.85C545.84,3423,460,3499.84,460,3607.84M203.83,3784.37h95.53l146.78-399.45c4.15-11.77,9.69-15.24,21.46-15.24h13.15v-76.85H422.6c-34.62,0-46.39,9-57.46,40.15L271,3607.14c-9.69,27.69-18.68,72-18.68,72h-1.39s-9-44.32-18.7-72L138.07,3333c-11.09-31.14-23.54-40.15-58.17-40.15H22.44v76.85H34.9c11.77,0,17.31,3.47,21.46,15.24Z" transform="translate(0 -0.06)"/></svg>