<svg id="Ebene_1" data-name="Ebene 1" xmlns="http://www.w3.org/2000/svg" viewBox="0 0 2560 2956"><path d="M946.79,1877.15H870.28v112.92c0,8.63,4.93,13.56,13.59,13.56h62.92c39.5,0,61.71-26.52,61.71-63.54C1008.5,1903.67,985.68,1877.15,946.79,1877.15Z" transform="translate(0 0)"/><path d="M1472.16,1235c0-88.86-65.24-150.32-143.68-150.32-77.54,0-142.76,61.46-142.76,150.32,0,89.8,65.15,150.3,142.76,150.3C1406.92,1385.3,1472.16,1324.8,1472.16,1235Z" transform="translate(0 0)"/><path d="M737.86,821.62c-17.42,52.86-35.31,193.53-35.31,193.53,13.31-23.43,48.17-50.77,87.85-62C790.16,952.44,758.87,858.36,737.86,821.62Z" transform="translate(0 0)"/><path d="M992.47,1756.82c0-31.47-18.52-54.29-54.31-54.29H870.28V1813H939.4C973.34,1813,992.47,1788.29,992.47,1756.82Z" transform="translate(0 0)"/><path d="M925.07,965.73,946.4,855.34l-59.94,95.21C893.83,952,915,960.43,925.07,965.73Z" transform="translate(0 0)"/><path d="M857.51,1040.26c-3.82,0-14,1.49-17.87,1.85,16.36,26,38.59,44.06,76.88,33C899.66,1052.85,883.8,1040.66,857.51,1040.26Z" transform="translate(0 0)"/><path d="M1280,0,0,739V2217l1280,739,1280-739V739ZM424.15,935.93c-5.62-15.94-13.12-20.61-29-20.61H358.68v-104H456c45.88,0,70.86,32.79,85.6,73l2.69,7.45L725,1397.18c11.09-24.25,93.11-194.85,152.77-204.11,59.07-9.16,142.89,39.22,206.69-20.36q-22.34-10.43-21.63-32s-45.73,16.27-106.78,2.78c-23.78-5.23-61-24.58-97.37-34.4-81.8-22.14-125.76,18.25-148.54,49.06,17.5-11.6,59.13-2.63,82.26,27.41-29.82,26.9-54.92,69.51-59.78,108l-98.46-278.31C644.78,985,695,846.31,737.56,774.37c34.09,50.6,81.32,172.86,81.32,172.86L963.75,806,946.88,981.13c9.81,6.75,28.45,32.35,31.46,55.52,6.22,48.08,85.87,72.75,126,82.44l.09,0c27.3,6.6,40,17.43-6,73.74-31.89,39.11-87.63,38.63-114.54,37.42-91-4-122.41,14.83-153.4,83.59L758,1466.26l-4.91,10.27H623.74ZM940.62,2072.14H831.41c-29,0-42-12.34-42-42V1702.53H749.34V1634H938.77c79,0,135.75,40.72,135.75,112.92,0,48.75-26.52,80.22-53.07,93.81V1842c47.53,14.2,70.36,58.63,70.36,103.06C1091.81,2032.64,1022.08,2072.14,940.62,2072.14Zm124.82-817.37c22.64-7.54,45.23-20.44,63-42.16,35-42.82,46.19-69.36,38.68-91.61-7.95-23.68-33.7-29.91-44.69-32.58-3.3-.76-6.54-1.61-9.71-2.45,47.58-64.17,126.19-103.39,215.77-103.39,147.46,0,264.68,104.93,264.68,252.34,0,148.41-117.22,252.4-264.68,252.4C1188.59,1487.32,1075.4,1392.53,1065.44,1254.77ZM1309,2079.54c-95.64,0-172.16-67.88-172.16-164.75,0-96.27,76.52-164.76,172.16-164.76,96.25,0,172.77,68.49,172.77,164.76C1481.78,2011.66,1405.26,2079.54,1309,2079.54Zm414.65-7.4-54.92-87.63c-4.32-6.16-8.63-16.65-8.63-16.65h-1.25s-4.93,9.86-9.25,16.65l-54.3,87.63h-87l102.45-159.2-51.85-78.37c-6.17-9.26-11.1-10.49-24.06-10.49H1512v-66.65h54.92c25.91,0,37,5.56,51.21,29.62l30.86,51.84c4.32,8,9.86,20.35,9.86,20.35h1.25s5.56-12.32,9.87-20.35l30.85-51.84c14.2-24.06,24.69-29.62,51.21-29.62h54.31v66.65h-22.23c-12.95,0-17.88,1.23-24,10.49l-52.46,78.37,103.06,159.2Zm259-596.08-84.15-134.25c-6.64-9.45-13.27-25.52-13.27-25.52h-1.9s-7.54,15.11-14.14,25.52L1786,1476.05H1652.7l156.88-243.91-79.42-120.05c-9.44-14.16-17-16-36.85-16h-35V993.94h84.11c39.67,0,56.7,8.49,78.46,45.38l47.23,79.4c6.75,12.27,15.18,31.2,15.18,31.2h1.89s8.55-18.93,15.18-31.2l47.25-79.4c21.74-36.94,37.79-45.38,78.44-45.38h83.19V1096h-34c-19.85,0-27.42,1.89-36.87,16L1958,1232.14l157.89,243.92Z" transform="translate(0 0)"/><path d="M1309,1816.67c-50.6,0-93.18,40.11-93.18,98.12,0,58.61,42.58,98.11,93.18,98.11,51.21,0,93.79-39.5,93.79-98.11C1402.8,1856.78,1360.22,1816.67,1309,1816.67Z" transform="translate(0 0)"/></svg>